<?xml version="1.0" ?><!DOCTYPE svg  PUBLIC '-//W3C//DTD SVG 1.1//EN'  'http://www.w3.org/Graphics/SVG/1.1/DTD/svg11.dtd'><svg enable-background="new 0 0 24 24" height="24px" id="Layer_1" version="1.1" viewBox="0 0 24 24" width="24px" xml:space="preserve" xmlns="http://www.w3.org/2000/svg" xmlns:xlink="http://www.w3.org/1999/xlink"><path d="M21,2h-2V1.5C19,1.2,18.8,1,18.5,1S18,1.2,18,1.5V2h-4V1c0-0.6-0.4-1-1-1h-2c-0.6,0-1,0.4-1,1v1H6V1.5C6,1.2,5.8,1,5.5,1  S5,1.2,5,1.5V2H3C2.4,2,2,2.4,2,3s0.4,1,1,1h2v0.5C5,4.8,5.2,5,5.5,5S6,4.8,6,4.5V4h5v4c-0.6,0.3-1,1-1,1.7V13H8v-1H5v3h3v-1h2v8  c0,1.1,0.9,2,2,2s2-0.9,2-2v-4h2v1h3v-3h-3v1h-2V9.7C14,9,13.6,8.3,13,8V4h5v0.5C18,4.8,18.2,5,18.5,5S19,4.8,19,4.5V4h2  c0.6,0,1-0.4,1-1S21.6,2,21,2z M13,22c0,0.6-0.4,1-1,1s-1-0.4-1-1V9.7c0-0.6,0.4-1,1-1s1,0.4,1,1V22z M11,2V1h2v1H11z"/></svg>