<svg id="Logo" xmlns="http://www.w3.org/2000/svg" xmlns:xlink="http://www.w3.org/1999/xlink" width="216mm" height="100mm" viewBox="0 0 612.2835 283.4645">
  <defs>
    <linearGradient id="Unbenannter_Verlauf_3" data-name="Unbenannter Verlauf 3" x1="329.4857" y1="141.7323" x2="612.2835" y2="141.7323" gradientUnits="userSpaceOnUse">
      <stop offset="0" stop-color="#003c71"/>
      <stop offset="1" stop-color="#00dcc8"/>
    </linearGradient>
  </defs>
  <path d="M182.2981,81.7535h-6.5966V50.14h6.5966V61.2175a6.8529,6.8529,0,0,1,2.3648-2.8837,6.6447,6.6447,0,0,1,3.858-1.0578q3.5676,0,5.2486,2.157a9.96,9.96,0,0,1,1.68,6.2234V81.7535H188.77V67.3574a6.7167,6.7167,0,0,0-.6221-3.153A2.5189,2.5189,0,0,0,185.7,63.0426a2.8207,2.8207,0,0,0-2.593,1.3069,6.61,6.61,0,0,0-.8089,3.5058Zm-23.3576.54a11.2742,11.2742,0,0,0,7.51-2.344q2.779-2.344,2.9045-7.3644V71.2572h-6.8873V72.46a4.9076,4.9076,0,0,1-.9541,3.0495,3.1492,3.1492,0,0,1-2.5308,1.0168,3.3016,3.3016,0,0,1-2.8007-1.2238,6.0119,6.0119,0,0,1-.9331-3.6718V68.0624a6.2982,6.2982,0,0,1,.975-3.92,3.3688,3.3688,0,0,1,2.8-1.2238,3.1492,3.1492,0,0,1,2.51.9331,5.1058,5.1058,0,0,1,.9332,3.05v.9953h6.8873v-.9953q-.167-4.9368-2.8836-7.3023a10.9,10.9,0,0,0-7.4056-2.3648,10.7712,10.7712,0,0,0-7.6337,2.6968q-2.9045,2.698-2.9045,8.09v3.7339q0,5.27,2.6347,7.9035T158.9405,82.2933ZM83.6825,64.1214a6.61,6.61,0,0,1,.6221,3.1118v14.52H90.943V65.5322A9.5306,9.5306,0,0,0,89.1794,59.33a6.4626,6.4626,0,0,0-5.29-2.1368,6.5805,6.5805,0,0,0-3.858,1.0992,6.7,6.7,0,0,0-2.3648,2.9666,5.7591,5.7591,0,0,0-2.22-3.0078,6.98,6.98,0,0,0-4.0037-1.058,6.4866,6.4866,0,0,0-3.8377,1.0992A7.0537,7.0537,0,0,0,65.22,61.2587l-.58-3.5679H59.08V81.7535h6.68V67.6893a7.3622,7.3622,0,0,1,.6842-3.4437A2.4725,2.4725,0,0,1,68.83,62.96a2.2923,2.2923,0,0,1,2.2819,1.1826,6.8164,6.8164,0,0,1,.5809,3.0078V81.7535h6.68V67.3162a6.6837,6.6837,0,0,1,.643-3.1536,2.8947,2.8947,0,0,1,4.6675-.0412ZM98.6381,80.6126a6.1937,6.1937,0,0,1-1.68-4.584v-.54a6.6322,6.6322,0,0,1,.726-3.2568,6.4563,6.4563,0,0,1,1.9708-2.178,9.44,9.44,0,0,1,2.6758-1.3069q1.4312-.4352,3.9619-.9749a17.0046,17.0046,0,0,0,3.4646-1.0371,1.7122,1.7122,0,0,0,1.0161-1.66v-.249a2.3028,2.3028,0,0,0-.6841-1.763,3.3973,3.3973,0,0,0-2.344-.643,3.6387,3.6387,0,0,0-2.5517.7881,3.1893,3.1893,0,0,0-.892,2.3648v.9959H97.6632v-.9959a8.28,8.28,0,0,1,2.6556-6.0365q2.4887-2.2611,7.4264-2.2609,5.1849,0,7.3638,2.1988a8.3467,8.3467,0,0,1,2.1779,6.14V81.7535H111.894l-.7887-3.6508a7.5306,7.5306,0,0,1-2.6759,3.0287,8.2,8.2,0,0,1-4.5846,1.1619Q100.3188,82.2933,98.6381,80.6126Zm5.3727-5.4969a2.0535,2.0535,0,0,0,.6436,1.6389,2.8688,2.8688,0,0,0,1.929.56,3.8383,3.8383,0,0,0,3.0908-1.3487,4.7014,4.7014,0,0,0,1.1409-3.132V70.1371a3.32,3.32,0,0,1-1.1.6221q-.6842.249-1.6382.498a14.1343,14.1343,0,0,0-2.0126.56,4.3238,4.3238,0,0,0-1.1821.6848,2.528,2.528,0,0,0-.643.9129,3.2817,3.2817,0,0,0-.2287,1.286ZM48.46,56.3219a4.6457,4.6457,0,0,0,2.9869-.7886,3.3234,3.3234,0,0,0,.9547-2.6969,3.2713,3.2713,0,0,0-.975-2.738,4.8552,4.8552,0,0,0-2.9666-.7469,4.9359,4.9359,0,0,0-3.0078.7469,3.2677,3.2677,0,0,0-.975,2.738,3.4388,3.4388,0,0,0,.892,2.7385A4.8844,4.8844,0,0,0,48.46,56.3219ZM9.5028,72.0459l2.8628-4.0247,5.8085,13.7323h7.4264L17.2612,63.1674l7.9244-11.16h-7.8L9.5028,63.3334V52.0071H2.9062V81.7535H9.5028Zm116.31,8.2347q2.51,2.0544,7.4056,2.0538,4.9368,0,7.3643-2.2191a7.3342,7.3342,0,0,0,2.4269-5.6634v-.249a6.4367,6.4367,0,0,0-.705-3.1947,6.0106,6.0106,0,0,0-1.8669-2.0329,10.4933,10.4933,0,0,0-2.5517-1.1821q-1.3905-.4362-2.7589-.726a25.9373,25.9373,0,0,1-3.6508-.9547,1.7407,1.7407,0,0,1-1.369-1.6591v-.1248a1.9692,1.9692,0,0,1,.643-1.535,3.2378,3.2378,0,0,1,2.178-.5809,3.71,3.71,0,0,1,2.3027.6227,2.6869,2.6869,0,0,1,.9749,1.867v.6639h6.4718v-.747a7.9461,7.9461,0,0,0-2.6138-5.3523q-2.2821-2.0324-7.0945-2.0329-4.5644,0-6.9285,2.0747a6.7928,6.7928,0,0,0-2.3649,5.3517v.166a6.5905,6.5905,0,0,0,.6848,3.1947,5.44,5.44,0,0,0,1.846,1.9917,10.1662,10.1662,0,0,0,2.49,1.12q1.3692.415,2.6968.7051,1.3692.2906,2.5308.581a5.587,5.587,0,0,1,1.8669.7881,1.8014,1.8014,0,0,1,.5182.6018,1.6993,1.6993,0,0,1,.1868.8089v.166a2.0773,2.0773,0,0,1-.7259,1.66,3.503,3.503,0,0,1-2.3028.622,4.14,4.14,0,0,1-2.5511-.705,3.0413,3.0413,0,0,1-1.1409-2.0747v-.8711h-6.8456v.9959A8.2511,8.2511,0,0,0,125.8125,80.2806ZM31.0347,81.7535h6.6795V50.14H31.0347Zm20.8267-23.98a2.6594,2.6594,0,0,1-.8089.228,11.643,11.643,0,0,1-1.3481.145c-.2489.0284-.477.0487-.6848.0622s-.4082.0209-.6012.0209q-.54,0-1.2866-.0621t-1.369-.1451a3.5025,3.5025,0,0,1-.4979-.1039,1.9889,1.9889,0,0,1-.29-.1039V81.7535h6.8867Zm179.143,15.0182a16.7484,16.7484,0,0,0,.6842,5.3315,4.6323,4.6323,0,0,0,2.4269,2.8007,7.9856,7.9856,0,0,0,2.0955.6221,16.8212,16.8212,0,0,0,2.8.2071h3.1947V75.4889H240.878a7.7707,7.7707,0,0,1-2.2609-.249,1.6254,1.6254,0,0,1-1.0579-1.12,3.9866,3.9866,0,0,1-.2281-1.0991q-.0627-.6852-.0621-1.5977V63.7065h4.9368V57.6908H237.269V52.2562h-5.2276q-.0425.7882-.1248,1.555a12.08,12.08,0,0,1-.2489,1.473,3.7885,3.7885,0,0,1-.643,1.7009,2.3211,2.3211,0,0,1-1.3481.7469q-.498.1245-1.0371.2078t-1.1618.1241v5.6426h3.5267Zm-21.7391,9.3764a6.528,6.528,0,0,0,3.9619-1.141,6.4376,6.4376,0,0,0,2.2609-3.0908l.664,3.8168h5.56V57.6908h-6.7625V71.5479a7.4358,7.4358,0,0,1-.7051,3.4849,2.5377,2.5377,0,0,1-2.4479,1.3278,2.3417,2.3417,0,0,1-2.3236-1.1619,7.1254,7.1254,0,0,1-.5809-3.1528V57.6908h-6.68v16.056q0,4.1069,1.7427,6.2646A6.4194,6.4194,0,0,0,209.2653,82.1685Zm57.1274-6.14h-10.04L266.31,63.0014V57.6908H248.5528v5.56h9.9155L247.9719,76.6925v5.061h18.4208ZM122.237,119.4661a16.7457,16.7457,0,0,0,.6848,5.3315,4.6323,4.6323,0,0,0,2.4268,2.8007,7.9834,7.9834,0,0,0,2.0957.6221,16.8191,16.8191,0,0,0,2.8.2072h3.1947V122.163h-1.3278a7.7679,7.7679,0,0,1-2.2609-.249,1.6252,1.6252,0,0,1-1.0579-1.12,3.9866,3.9866,0,0,1-.2281-1.0991q-.0627-.6851-.0621-1.5976v-7.7167h4.9368v-6.0156h-4.9368V98.93h-5.2276q-.0425.7893-.1248,1.5559a12.08,12.08,0,0,1-.2489,1.4728,3.7923,3.7923,0,0,1-.643,1.701,2.3219,2.3219,0,0,1-1.3481.7469q-.498.1244-1.0377.2078t-1.1612.1241v5.6425h3.5261Zm97.4937,8.9615h6.7625V114.5293a6.7307,6.7307,0,0,1,.7881-3.5267,2.826,2.826,0,0,1,2.6138-1.2859,2.532,2.532,0,0,1,2.4478,1.1409,6.6963,6.6963,0,0,1,.6227,3.1738v14.3962h6.7208V112.3717a9.4737,9.4737,0,0,0-1.8251-6.2438,6.64,6.64,0,0,0-5.3936-2.178,6.8837,6.8837,0,0,0-4.0658,1.141,6.801,6.801,0,0,0-2.4066,3.0908l-.6639-3.8168h-5.6007ZM193.013,104.3649v16.0559q0,4.107,1.7421,6.2646a6.4192,6.4192,0,0,0,5.3106,2.1571,6.5313,6.5313,0,0,0,3.9625-1.1409,6.4426,6.4426,0,0,0,2.2609-3.0908l.6639,3.8168h5.559V104.3649h-6.7626v13.857a7.4266,7.4266,0,0,1-.7051,3.4849,2.5362,2.5362,0,0,1-2.4478,1.3278,2.34,2.34,0,0,1-2.323-1.1618,7.1187,7.1187,0,0,1-.5809-3.1536V104.3649Zm-46.34.083a2.6672,2.6672,0,0,1-.809.2281,11.6688,11.6688,0,0,1-1.3487.145q-.3735.0416-.6842.0621c-.2078.0148-.4088.0209-.6018.0209q-.5394,0-1.286-.0621t-1.369-.145a3.4875,3.4875,0,0,1-.4979-.104,1.9784,1.9784,0,0,1-.2907-.1039v23.9386h6.8873Zm28.9989,15.0182a16.7479,16.7479,0,0,0,.6842,5.3315,4.634,4.634,0,0,0,2.4269,2.8007,7.9818,7.9818,0,0,0,2.0955.6221,16.82,16.82,0,0,0,2.8.2072h3.1948V122.163h-1.3279a7.7707,7.7707,0,0,1-2.2609-.249,1.6259,1.6259,0,0,1-1.058-1.12,3.9907,3.9907,0,0,1-.228-1.0991q-.0618-.6851-.0621-1.5976v-7.7167h4.9369v-6.0156h-4.9369V98.93h-5.2276q-.0414.7893-.1248,1.5559a12.1974,12.1974,0,0,1-.2483,1.4728,3.7978,3.7978,0,0,1-.6437,1.701,2.3213,2.3213,0,0,1-1.3481.7469q-.4978.1244-1.0369.2078t-1.1619.1241v5.6425h3.5267Zm-32.4008-16.47a4.6492,4.6492,0,0,0,2.987-.7887,3.3234,3.3234,0,0,0,.954-2.6968,3.27,3.27,0,0,0-.9749-2.7379,4.8536,4.8536,0,0,0-2.9661-.7469,4.9352,4.9352,0,0,0-3.0079.7469,3.2677,3.2677,0,0,0-.9749,2.7379,3.4389,3.4389,0,0,0,.892,2.7386A4.8842,4.8842,0,0,0,143.2709,102.9959ZM111.0779,113.16a11.0905,11.0905,0,0,0-2.655-1.5558q-1.4532-.6012-2.9046-1.058-1.4937-.4565-2.7588-.9128a6.6714,6.6714,0,0,1-2.0538-1.12,1.9379,1.9379,0,0,1-.6012-.7886,2.5944,2.5944,0,0,1-.1869-.9953v-.332a2.9009,2.9009,0,0,1,.726-2.0125,3.1288,3.1288,0,0,1,2.4269-.809,3.7005,3.7005,0,0,1,2.6557.809,3.4994,3.4994,0,0,1,.871,2.5105v1.203h6.68v-1.3278a8.2351,8.2351,0,0,0-2.5517-6.3888q-2.51-2.2405-7.53-2.2406t-7.5094,2.3439a7.97,7.97,0,0,0-2.49,6.0784v.4978a7.9757,7.9757,0,0,0,.7057,3.547,6.4779,6.4779,0,0,0,1.908,2.3439,9.5123,9.5123,0,0,0,2.5936,1.5147q1.431.56,2.8418,1.0161,1.5343.498,2.8419.9959a6.6956,6.6956,0,0,1,2.095,1.203,2.2481,2.2481,0,0,1,.6018.8508,3.0105,3.0105,0,0,1,.1862,1.0992v.6227a2.895,2.895,0,0,1-.788,2.074,3.4823,3.4823,0,0,1-2.6138.83,3.9268,3.9268,0,0,1-3.0079-.9749,4.1469,4.1469,0,0,1-.9331-2.8008v-1.659h-6.97v1.6179a12.5422,12.5422,0,0,0,1.0579,5.2479,6.8288,6.8288,0,0,0,3.34,3.2567,10.4024,10.4024,0,0,0,2.78.8508,21.3247,21.3247,0,0,0,3.5678.27q5.1028,0,7.7166-2.4066a8.3168,8.3168,0,0,0,2.6138-6.4307v-.9128a7.9521,7.9521,0,0,0-.7463-3.6508A7.5242,7.5242,0,0,0,111.0779,113.16Zm51.6705-11.1191a2.5848,2.5848,0,0,1,2.0119-.5809h1.9918V95.9426h-2.987q-4.1493,0-6.0365,1.763t-1.8878,5.9536v1.5355h-3.4019v5.85h3.4019v17.3832H162.23l.0418-17.3832h4.439v-5.85h-4.439v-.7468A4.1119,4.1119,0,0,1,162.7484,102.0412Zm86.5221,35.1406a5.9185,5.9185,0,0,1-3.05-1.6388,3.7674,3.7674,0,0,1-.892-2.51,3.59,3.59,0,0,1,1.1821-2.78,7.4475,7.4475,0,0,1,3.5058-1.5768,5.7,5.7,0,0,1-3.2568-1.431,3.9533,3.9533,0,0,1-1.0992-2.9249,4.2523,4.2523,0,0,1,1.1822-3.1117,6.79,6.79,0,0,1,3.5057-1.701,5.9888,5.9888,0,0,1-3.049-2.2818,6.8412,6.8412,0,0,1-1.0167-3.8586v-1.8251a6.2664,6.2664,0,0,1,2.3439-5.29,11.5485,11.5485,0,0,1,6.3274-2.0956l.622-.083q.7469-.082,1.3069-.1862a7.05,7.05,0,0,0,.9338-.2287,1.7447,1.7447,0,0,0,.9952-1.0371,6.3992,6.3992,0,0,0,.249-2.0328V99.5522h7.0945v.6221a9.382,9.382,0,0,1-.1242,1.618,4.1273,4.1273,0,0,1-.4149,1.2448,3.0527,3.0527,0,0,1-1.846,1.4728,12.3066,12.3066,0,0,1-3.7136.4359,7.2751,7.2751,0,0,1,4.3566,2.178,6.2817,6.2817,0,0,1,1.4931,4.3356v1.95a6.684,6.684,0,0,1-2.5719,5.7046q-2.5726,1.929-7.3018,1.929h-1.2036a9.8016,9.8016,0,0,0-3.1111.311,1.01,1.01,0,0,0-.7468.9338.86.86,0,0,0,.6429.83,7.8051,7.8051,0,0,0,2.4269.2483h4.44q4.48,0,6.5965,1.7428a5.9423,5.9423,0,0,1,2.1159,4.8538v.0418a6.8028,6.8028,0,0,1-2.7386,5.6008q-2.7375,2.1567-8.8366,2.1576h-.4149q-1.9088,0-3.3816-.145A16.0935,16.0935,0,0,1,249.2705,137.1818Zm2.1159-6.1405a1.5986,1.5986,0,0,0,.9122,1.3488,5.86,5.86,0,0,0,2.9458.56h.9958a8.03,8.03,0,0,0,3.8377-.6848,1.9463,1.9463,0,0,0,1.1821-1.6389v-.0829a1.4611,1.4611,0,0,0-.7051-1.2652,4.8027,4.8027,0,0,0-2.5308-.477h-3.0287a5.5756,5.5756,0,0,0-2.6138.6842A1.7546,1.7546,0,0,0,251.3864,131Zm1.5349-17.383a2.641,2.641,0,0,0,.85,2.157,3.4927,3.4927,0,0,0,2.3027.7051,3.5781,3.5781,0,0,0,2.3649-.726,2.6705,2.6705,0,0,0,.8711-2.178v-2.157a2.8318,2.8318,0,0,0-.8711-2.3028,3.5147,3.5147,0,0,0-2.323-.726H255.97l-.1032.0412a3.1537,3.1537,0,0,0-2.1159.809,2.8737,2.8737,0,0,0-.83,2.22Zm-1.8376,47.8772a8.6293,8.6293,0,0,1,1.597-5.4765,5.5333,5.5333,0,0,1,4.6264-2.0329,4.8286,4.8286,0,0,1,4.2109,1.763,7.9956,7.9956,0,0,1,1.2651,4.7506v14.5621h3.61V159.834a9.9053,9.9053,0,0,0-2.012-6.5548q-2.0129-2.4057-6.0366-2.4067a7.5515,7.5515,0,0,0-4.8335,1.4938,8.0176,8.0176,0,0,0-2.6759,3.9828l-.3732-4.9368H247.474v23.69h3.61ZM208.02,174.0021a7.6292,7.6292,0,0,1-4.9786,1.5558,8.362,8.362,0,0,1-6.5763-2.7791q-2.4684-2.7792-2.4681-8.09V161.66q0-5.2273,2.5308-8.0074a8.6494,8.6494,0,0,1,6.7208-2.78,7.8849,7.8849,0,0,1,4.6466,1.2867,7.5356,7.5356,0,0,1,2.6968,3.526V143.7369h3.4849v31.3649h-2.904l-.4567-5.0616A8.3526,8.3526,0,0,1,208.02,174.0021Zm-4.0246-1.5971a6.0193,6.0193,0,0,0,4.9577-2.178,8.6513,8.6513,0,0,0,1.7631-5.6216v-2.8627a8.8652,8.8652,0,0,0-1.701-5.6216,5.7075,5.7075,0,0,0-4.7708-2.178,5.9073,5.9073,0,0,0-4.8747,2.074,8.9234,8.9234,0,0,0-1.6807,5.7667v2.78a8.6431,8.6431,0,0,0,1.7427,5.85A5.7746,5.7746,0,0,0,203.9953,172.405Zm-46.59-12.4463a6.9142,6.9142,0,0,1,3.6926,2.1989,6.3962,6.3962,0,0,1,1.2448,4.1488v1.037a7.302,7.302,0,0,1-2.2616,5.7255q-2.2619,2.0332-7.3637,2.0329h-10.04v-29.498h9.6253q5.1432,0,7.3434,1.846a6.474,6.474,0,0,1,2.1988,5.2485v.83a7.096,7.096,0,0,1-1.1,4.17A6.2,6.2,0,0,1,157.4056,159.9587Zm-.332,2.676a8.2346,8.2346,0,0,0-4.8126-1.141h-6.0569v10.4552h6.0987q3.4844,0,4.9165-1.2036a4.4476,4.4476,0,0,0,1.431-3.6091v-.9128A4.13,4.13,0,0,0,157.0736,162.6347Zm1.2036-9.6045a3.9785,3.9785,0,0,0-1.37-3.2986q-1.3683-1.0981-4.5637-1.0991h-6.14v9.8325h6.14a7.0573,7.0573,0,0,0,4.46-1.0992,4.307,4.307,0,0,0,1.4729-3.6305Zm79.4061,20.5576a10.0392,10.0392,0,0,1-6.7207,2.0531q-5.1037,0-7.6342-2.8a11.0555,11.0555,0,0,1-2.53-7.6964v-3.4018a14.82,14.82,0,0,1,.311-3.1117,11.2876,11.2876,0,0,1,.9331-2.6969,8.9205,8.9205,0,0,1,3.5476-3.7749,10.735,10.735,0,0,1,5.4557-1.3279,12.5912,12.5912,0,0,1,3.0908.3529,8.1258,8.1258,0,0,1,2.4687,1.0579,8.5232,8.5232,0,0,1,3.2562,3.796,12.9022,12.9022,0,0,1,1.0585,5.29v3.07H224.283v.7468a7.9784,7.9784,0,0,0,1.7009,5.4557,6.4461,6.4461,0,0,0,5.1029,1.93,6.2975,6.2975,0,0,0,3.9416-1.1206,5.2252,5.2252,0,0,0,1.8669-3.3189v-.415h3.8168v.332A9.1549,9.1549,0,0,1,237.6833,173.5878Zm-13.4-12.0941h13.0684v-.3731a8.2677,8.2677,0,0,0-1.5559-5.3315,5.6886,5.6886,0,0,0-4.7087-1.929,6.3572,6.3572,0,0,0-5.02,2.012A8.1874,8.1874,0,0,0,224.283,161.4937Zm-43.5623,12.4672A9.3465,9.3465,0,0,1,175.12,175.6a7.4706,7.4706,0,0,1-5.1858-1.6179,5.7428,5.7428,0,0,1-1.7839-4.4807V169.21a6.5737,6.5737,0,0,1,.7462-3.1941,6.11,6.11,0,0,1,1.9918-2.1988,7.7172,7.7172,0,0,1,.8507-.5189q.4353-.2277.892-.4358a18.6989,18.6989,0,0,1,2.24-.726q1.3277-.3522,3.3188-.7672a22.7856,22.7856,0,0,0,4.2945-1.2238,2.2836,2.2836,0,0,0,1.4729-2.2616v-.0831a3.6681,3.6681,0,0,0-1.2658-2.9451,6.3375,6.3375,0,0,0-4.1278-1.0788,6.6832,6.6832,0,0,0-4.5016,1.3481,4.8536,4.8536,0,0,0-1.6389,3.6717v.9129h-3.61v-.9541a7.7311,7.7311,0,0,1,2.6556-5.7046,10.2368,10.2368,0,0,1,6.97-2.1786q4.8123,0,6.8873,1.9917a7.1284,7.1284,0,0,1,2.0741,5.3937v16.8439h-2.904l-.4567-5.3106A9.4765,9.4765,0,0,1,180.7207,173.9609Zm2.2819-5.4556a8.1306,8.1306,0,0,0,.9547-3.8169l.0412-2.9869a4.9968,4.9968,0,0,1-1.9081,1.0991,29.78,29.78,0,0,1-3.0288.8508q-2.2821.4969-3.4646.892a6.4563,6.4563,0,0,0-2.012,1.0579,3.7242,3.7242,0,0,0-1.1827,1.41,4.3965,4.3965,0,0,0-.394,1.9087v.1659a3.372,3.372,0,0,0,1.0789,2.6347,4.6226,4.6226,0,0,0,3.1946.975,7.8968,7.8968,0,0,0,2.178-.2908,6.6875,6.6875,0,0,0,1.8878-.871A8.473,8.473,0,0,0,183.0026,168.5053ZM50.6979,195.3066a2.2442,2.2442,0,0,0,1.7219-.6018,3.1415,3.1415,0,0,0-.02-3.61,2.361,2.361,0,0,0-1.7016-.56,2.4788,2.4788,0,0,0-1.7421.54,2.4057,2.4057,0,0,0-.5809,1.8252,2.5933,2.5933,0,0,0,.5392,1.8669A2.4552,2.4552,0,0,0,50.6979,195.3066Zm36.6338-2.9046H84.4278q-.0416.54-.083,1.6186a15.6936,15.6936,0,0,1-.1242,1.6179,3.6863,3.6863,0,0,1-.5188,1.97,2.3941,2.3941,0,0,1-1.5971.5189q-.4158.0414-1.0788.0621c-.4426.0147-.8028.0208-1.0789.0208v3.07h4.0246v12.1561a16.2516,16.2516,0,0,0,.6222,5.0825,4.0377,4.0377,0,0,0,2.1988,2.51,7.2307,7.2307,0,0,0,1.8878.56,15.0683,15.0683,0,0,0,2.51.1869H93.431v-3.4018H91.9784A8.71,8.71,0,0,1,89.0953,218a2.2538,2.2538,0,0,1-1.39-1.535,9.4508,9.4508,0,0,1-.27-1.4311,16.8128,16.8128,0,0,1-.1039-2.0125V201.2805H93.431v-3.1941H87.3317Zm17.7151,0h-2.9046q-.0414.54-.0823,1.6186a15.6793,15.6793,0,0,1-.1249,1.6179,3.681,3.681,0,0,1-.5187,1.97,2.393,2.393,0,0,1-1.5971.5189q-.415.0414-1.0789.0621c-.4426.0147-.8022.0208-1.0782.0208v3.07h4.024v12.1561a16.27,16.27,0,0,0,.6221,5.0825,4.038,4.038,0,0,0,2.1988,2.51,7.2456,7.2456,0,0,0,1.8879.56,15.07,15.07,0,0,0,2.51.1869h2.24v-3.4018h-1.452A8.71,8.71,0,0,1,106.81,218a2.2534,2.2534,0,0,1-1.39-1.535,9.3949,9.3949,0,0,1-.2693-1.4311,16.8358,16.8358,0,0,1-.1038-2.0125V201.2805h6.0986v-3.1941h-6.0986Zm-35.6994,6.8665a6.7947,6.7947,0,0,0-2.4269,4.17l-.498-5.3517H63.56v23.69h3.5679V209.4538a13.7643,13.7643,0,0,1,.6018-4.46,4.4955,4.4955,0,0,1,2.0949-2.5517,6.1594,6.1594,0,0,1,1.7839-.6221,12.1278,12.1278,0,0,1,2.3649-.2078h1.6179V197.92H74.4293A8.3565,8.3565,0,0,0,69.3474,199.2685Zm65.0106,3.4436a12.9142,12.9142,0,0,1,1.0578,5.29v3.07H118.7791v.747a7.9808,7.9808,0,0,0,1.7009,5.4556,6.4477,6.4477,0,0,0,5.1034,1.929,6.2953,6.2953,0,0,0,3.941-1.12,5.2232,5.2232,0,0,0,1.8669-3.3189v-.415h3.8168v.332a9.1469,9.1469,0,0,1-3.0281,5.58,10.0376,10.0376,0,0,1-6.7214,2.0538q-5.1029,0-7.6336-2.8a11.0558,11.0558,0,0,1-2.5308-7.6963v-3.4019a14.8661,14.8661,0,0,1,.311-3.1117,11.3128,11.3128,0,0,1,.9338-2.6968,8.9194,8.9194,0,0,1,3.5469-3.7756,10.74,10.74,0,0,1,5.4557-1.3273,12.6214,12.6214,0,0,1,3.0908.3523,8.1557,8.1557,0,0,1,2.4687,1.058A8.53,8.53,0,0,1,134.358,202.7121Zm-2.51,5.082a8.2713,8.2713,0,0,0-1.5558-5.3309,5.69,5.69,0,0,0-4.7088-1.929,6.3576,6.3576,0,0,0-5.02,2.012,8.1865,8.1865,0,0,0-1.7838,5.6216H131.848Zm33.6463-10.33a6.8129,6.8129,0,0,0-6.9286,4.9786,6.809,6.809,0,0,0-2.261-3.6508,7.0326,7.0326,0,0,0-4.5434-1.3278,6.8848,6.8848,0,0,0-4.3768,1.3487,7.6544,7.6544,0,0,0-2.51,3.63l-.332-4.3559h-2.9869v23.69h3.6091v-13.94a9.18,9.18,0,0,1,1.3487-5.2068,4.5843,4.5843,0,0,1,4.0866-2.0119,4.3573,4.3573,0,0,1,4.5219,3.0281,11.8669,11.8669,0,0,1,.332,1.4938,10.6355,10.6355,0,0,1,.1248,1.66v14.9771h3.5678V206.84a7.5964,7.5964,0,0,1,1.2448-4.4187,5.3128,5.3128,0,0,1,7.9238-.0621,8.039,8.039,0,0,1,1.203,4.6467v14.77h3.5685V206.2591a9.9976,9.9976,0,0,0-1.8879-6.4718A6.9162,6.9162,0,0,0,165.4943,197.4637ZM52.69,211.57a8.9317,8.9317,0,0,1-1.5141,5.3936,5.0029,5.0029,0,0,1-4.2945,2.074,4.4143,4.4143,0,0,1-3.9619-1.763,8.2509,8.2509,0,0,1-1.1827-4.6676v-14.52H38.1687v15.2672a10.1688,10.1688,0,0,0,1.8878,6.5136,6.9074,6.9074,0,0,0,5.7464,2.3648,7.201,7.201,0,0,0,4.6049-1.41,7.588,7.588,0,0,0,2.5308-3.8175l.3732,4.7715h2.9875v-23.69H52.69Zm172.2352-8.8576a12.9012,12.9012,0,0,1,1.058,5.29v3.07H209.346v.747a7.978,7.978,0,0,0,1.7016,5.4556,6.4456,6.4456,0,0,0,5.1028,1.929,6.2974,6.2974,0,0,0,3.9416-1.12,5.2285,5.2285,0,0,0,1.8669-3.3189v-.415h3.8168v.332a9.1506,9.1506,0,0,1-3.0287,5.58,10.0376,10.0376,0,0,1-6.7214,2.0538q-5.1028,0-7.6336-2.8a11.0558,11.0558,0,0,1-2.5308-7.6963v-3.4019a14.8661,14.8661,0,0,1,.311-3.1117,11.3172,11.3172,0,0,1,.9338-2.6968,8.923,8.923,0,0,1,3.5469-3.7756,10.7432,10.7432,0,0,1,5.4557-1.3273,12.6223,12.6223,0,0,1,3.0914.3523,8.1538,8.1538,0,0,1,2.4682,1.058A8.5247,8.5247,0,0,1,224.9249,202.7121Zm-2.51,5.082a8.2713,8.2713,0,0,0-1.5558-5.3309,5.6888,5.6888,0,0,0-4.7088-1.929,6.356,6.356,0,0,0-5.02,2.012,8.1833,8.1833,0,0,0-1.7846,5.6216h13.069Zm15.4953-8.5256a6.7952,6.7952,0,0,0-2.4269,4.17l-.4979-5.3517h-2.8628v23.69h3.5678V209.4538a13.7668,13.7668,0,0,1,.6019-4.46,4.4975,4.4975,0,0,1,2.095-2.5517,6.1573,6.1573,0,0,1,1.7839-.6221,12.13,12.13,0,0,1,2.3648-.2078h1.6179V197.92h-1.1612A8.3574,8.3574,0,0,0,237.91,199.2685ZM267.9272,224.39a6.2369,6.2369,0,0,1-2.5929,5.1028q-2.5938,2.0323-8.2772,2.0329h-.5391a25.8158,25.8158,0,0,1-3.07-.166,15.0335,15.0335,0,0,1-2.3648-.4561,5.5006,5.5006,0,0,1-2.8627-1.7839,4.4354,4.4354,0,0,1-.8711-2.7386,4.2585,4.2585,0,0,1,1.2442-3.07,7.6438,7.6438,0,0,1,3.6926-1.9087,5.5431,5.5431,0,0,1-3.2986-1.2652,3.7634,3.7634,0,0,1,.166-5.3935,7.4283,7.4283,0,0,1,3.63-1.4729,6.104,6.104,0,0,1-3.3607-2.22,6.7615,6.7615,0,0,1-1.12-4.0448v-1.8669a6.5793,6.5793,0,0,1,1.8879-4.8957,9.1174,9.1174,0,0,1,5.4138-2.323,4.6433,4.6433,0,0,1,.8711-.1248q.5809-.0405.9546-.083a13.72,13.72,0,0,0,1.8048-.2489,7.33,7.33,0,0,0,1.2652-.3732,2.6227,2.6227,0,0,0,1.4107-1.2657,5.1456,5.1456,0,0,0,.3732-2.1361v-.7469h3.9827v.7469a4.5164,4.5164,0,0,1-1.2238,3.4639q-1.2237,1.1415-4.6671,1.3069l.1452.0209.1032.0209a6.5753,6.5753,0,0,1,4.2527,2.178,6.4724,6.4724,0,0,1,1.5559,4.3768v1.95a6.6021,6.6021,0,0,1-2.4479,5.4765,10.58,10.58,0,0,1-6.7626,1.95h-.788a10.1866,10.1866,0,0,0-4.2318.5808,1.7557,1.7557,0,0,0-1.0788,1.5768,1.5069,1.5069,0,0,0,.871,1.3893,6.1718,6.1718,0,0,0,2.9046.4358h5.02q4.19,0,6.0986,1.618A5.4194,5.4194,0,0,1,267.9272,224.39Zm-14.666-13.8362a5.9433,5.9433,0,0,0,3.9618,1.1821,6.2486,6.2486,0,0,0,4.17-1.2238,4.31,4.31,0,0,0,1.4317-3.464v-1.9087a4.4282,4.4282,0,0,0-1.4938-3.7547,6.1118,6.1118,0,0,0-3.8168-1.141c-.1942,0-.394.0074-.6018.0209s-.394.0351-.56.0621a5.4486,5.4486,0,0,0-3.2777,1.535,4.63,4.63,0,0,0-1.203,3.3606v1.867A4.2947,4.2947,0,0,0,253.2612,210.5535Zm11.2642,14.0434a2.7166,2.7166,0,0,0-1.1-2.261,6.2873,6.2873,0,0,0-3.7548-.8507h-3.692a7.2527,7.2527,0,0,0-3.7965,1.2238,3.1167,3.1167,0,0,0-1.3481,2.5936v.083a2.6163,2.6163,0,0,0,1.3272,2.2191,7.7744,7.7744,0,0,0,4.2318.8919h.8717a10.6614,10.6614,0,0,0,5.5177-1.0991A3.2415,3.2415,0,0,0,264.5254,224.5969ZM24.7272,215.6355l-6.8043-23.3576H15.226L8.1733,215.2206,3.5678,192.2779H0l6.0574,29.498H9.4182l7.1356-23.0674,6.7214,23.0674h3.36l7.0115-29.498H30.0789Zm18.9181-20.3289a2.318,2.318,0,0,0,1.7427-.6018,2.4432,2.4432,0,0,0,.58-1.763,2.543,2.543,0,0,0-.56-1.8467,2.3458,2.3458,0,0,0-1.7218-.56,2.479,2.479,0,0,0-1.7422.54,2.4053,2.4053,0,0,0-.5809,1.8252,2.5307,2.5307,0,0,0,.56,1.8669A2.4,2.4,0,0,0,43.6453,195.3066Zm154.0228,4.9787q2.51,2.7376,2.51,8.0485v2.9869q0,5.27-2.489,8.1316a8.501,8.501,0,0,1-6.7625,2.8627,7.395,7.395,0,0,1-4.8128-1.5141,8.4845,8.4845,0,0,1-2.6967-3.9207l-.3738,4.8957h-2.9451V190.411h3.443v12.3221a8.1318,8.1318,0,0,1,2.8216-3.7966,7.8189,7.8189,0,0,1,4.73-1.39A8.5012,8.5012,0,0,1,197.6681,200.2853Zm-1.1826,8.09a8.6035,8.6035,0,0,0-1.7219-5.7249,5.7984,5.7984,0,0,0-4.667-2.0329,6.9329,6.9329,0,0,0-1.9087.2489,5.7254,5.7254,0,0,0-1.6179.7463,6.5237,6.5237,0,0,0-2.3028,2.7177,9.1211,9.1211,0,0,0-.809,3.9207v2.904a8.8915,8.8915,0,0,0,1.7219,5.7464,5.7639,5.7639,0,0,0,4.7506,2.1361,6.02,6.02,0,0,0,4.8747-1.991,8.7207,8.7207,0,0,0,1.68-5.7668Z" fill="#003c71"/>
  <path d="M525.1184,266.1234a7.5459,7.5459,0,1,1-7.5458-7.5459A7.5462,7.5462,0,0,1,525.1184,266.1234ZM518.9063,10.6715a7.67,7.67,0,1,0,7.6706,7.6707A7.6708,7.6708,0,0,0,518.9063,10.6715ZM565.2611,235.442a3.6686,3.6686,0,1,0,3.6689,3.6689A3.6681,3.6681,0,0,0,565.2611,235.442ZM549.9274,110.0352a20.6683,20.6683,0,1,0-20.668-20.668A20.6685,20.6685,0,0,0,549.9274,110.0352ZM464.5479,0a12.6726,12.6726,0,1,0,12.6727,12.6726A12.6722,12.6722,0,0,0,464.5479,0Zm-1,258.1193A12.6726,12.6726,0,1,0,476.22,270.7919,12.6729,12.6729,0,0,0,463.5477,258.1193Zm58.3606-33.5158a14.8409,14.8409,0,1,0-14.8408,14.84A14.8409,14.8409,0,0,0,521.9083,224.6035Zm75.3679-139.23a3.6683,3.6683,0,1,0,3.6682,3.6677A3.6676,3.6676,0,0,0,597.2762,85.3731Zm11.3383,52.6906a3.6686,3.6686,0,1,0,3.669,3.6689A3.6686,3.6686,0,0,0,608.6145,138.0637Zm-41.3522-19.3424a21.677,21.677,0,1,0,21.677,21.677A21.677,21.677,0,0,0,567.2623,118.7213Zm-14.8409,50.3565a20.51,20.51,0,1,0,20.51,20.5091A20.5094,20.5094,0,0,0,552.4214,169.0778Zm44.8548,22.3439a3.6683,3.6683,0,1,0,3.6682,3.6689A3.6683,3.6683,0,0,0,597.2762,191.4217ZM453.0426,64.363a7.8374,7.8374,0,1,0-7.8377-7.8371A7.8372,7.8372,0,0,0,453.0426,64.363ZM372.8391,168.0782a21.6767,21.6767,0,1,0-21.6764,21.6764A21.6766,21.6766,0,0,0,372.8391,168.0782Zm0,29.013a20.0093,20.0093,0,1,0,20.0092,20.0093A20.0091,20.0091,0,0,0,372.8391,197.0912Zm16.34-61.0281a3.6687,3.6687,0,1,0,3.6688,3.6683A3.6681,3.6681,0,0,0,389.18,136.0631Zm-38.0168,0a21.6767,21.6767,0,1,0-21.677-21.6764A21.6765,21.6765,0,0,0,351.1627,136.0631ZM565.9286,48.69a3.6684,3.6684,0,1,0-3.6684-3.669A3.6687,3.6687,0,0,0,565.9286,48.69Zm-58.4748,24A14.8932,14.8932,0,1,0,492.5607,57.796,14.8935,14.8935,0,0,0,507.4538,72.6891ZM412.1907,236.7763a16.6744,16.6744,0,1,0,16.6745,16.6744A16.6741,16.6741,0,0,0,412.1907,236.7763ZM372.5057,45.3546a20.3427,20.3427,0,1,0,20.3426,20.3427A20.3427,20.3427,0,0,0,372.5057,45.3546Zm40.0185-32.682A17.0078,17.0078,0,1,0,429.5321,29.68,17.0081,17.0081,0,0,0,412.5242,12.6726Zm-3.3355,78.0359a3.668,3.668,0,1,0-3.6676-3.6682A3.6681,3.6681,0,0,0,409.1887,90.7085Zm51.0241,135.8961a7.8374,7.8374,0,1,0-7.8371,7.8377A7.8368,7.8368,0,0,0,460.2128,226.6046Zm-57.36-32.8476a3.6683,3.6683,0,1,0,3.6683-3.669A3.668,3.668,0,0,0,402.853,193.757Z" fill="url(#Unbenannter_Verlauf_3)"/>
  <polygon points="285.394 164.398 273.986 164.398 273.986 161.494 279.69 161.494 285.394 161.494 285.394 164.398" fill="#003c71"/>
</svg>
