<svg xmlns="http://www.w3.org/2000/svg" width="655" height="284" viewBox="0 0 655 284">
  <g fill="none" fill-rule="evenodd">
    <path fill="#000" d="M378.863 226.766C378.863 230.346 375.648 232.759 369.893 232.759 365.442 232.759 362.348 230.902 362.348 227.627 362.348 225.527 363.585 223.671 365.69 222.495 366.12 222.558 366.864 222.558 367.421 222.558L373.172 222.558C377.069 222.558 378.863 224.289 378.863 226.766L378.863 226.766zM376.886 202.077C376.886 206.104 374.163 208.393 369.955 208.393 365.563 208.393 363.088 206.104 363.088 202.023 363.088 198.246 365.69 195.59 370.081 195.59 374.409 195.59 376.886 198.058 376.886 202.077L376.886 202.077zM385.48 225.896C385.48 220.333 381.645 217.176 374.966 217.176L369.709 217.176C366.062 217.176 364.636 216.557 364.636 215.013 364.636 214.144 365.191 213.211 366.367 212.662 367.358 212.905 368.658 213.03 369.771 213.03 378.68 213.03 383.255 208.267 383.255 201.647 383.255 199.421 382.448 197.627 381.151 196.515L385.852 196.515 385.852 191.319 375.459 191.319C373.854 190.943 372.185 190.7 370.391 190.7 361.419 190.7 356.655 196.083 356.655 202.516 356.655 206.535 358.391 209.63 361.172 211.236 359.068 212.224 357.709 214.269 357.709 216.557 357.709 218.594 358.885 220.207 360.741 221.132 358.081 222.495 355.793 225.402 355.793 228.865 355.793 234.805 360.8 237.899 368.843 237.899 378.738 237.899 385.48 232.579 385.48 225.896L385.48 225.896zM341.502 222.057L353.255 222.057 353.255 217.975C351.711 217.606 349.917 217.301 348.123 217.176L348.123 200.533C348.123 195.088 345.894 190.7 338.905 190.7 333.773 190.7 330.06 193.42 328.265 197.384L328.144 197.321C328.453 195.59 328.637 192.926 328.637 191.319 324.864 191.132 320.41 191.382 316.947 191.751L316.947 195.833C318.741 195.958 320.845 196.209 322.33 196.451L322.33 217.176C320.473 217.301 318.558 217.606 316.947 217.975L316.947 222.057 333.648 222.057 333.648 217.92C332.226 217.544 330.494 217.301 328.884 217.176L328.884 207.217C328.884 201.09 332.347 196.209 336.927 196.209 340.452 196.209 341.502 198.434 341.502 202.266L341.502 222.057zM313.112 221.626L313.112 217.544C311.443 217.418 309.465 217.176 307.981 216.925L307.981 191.319C304.144 191.132 299.875 191.319 296.6 191.751L296.6 195.833C298.206 195.958 300.062 196.209 301.359 196.389L301.359 206.167C301.359 212.286 297.959 217.176 293.32 217.176 289.795 217.176 288.741 214.95 288.741 211.111L288.741 191.319C284.722 191.132 280.268 191.382 277.051 191.751L277.051 195.833C278.661 195.958 280.702 196.209 282.187 196.451L282.187 212.843C282.187 218.288 284.35 222.676 291.338 222.676 296.537 222.676 300.184 219.957 302.041 216L302.166 216.063C301.856 217.857 301.731 220.333 301.731 222.057 305.379 222.244 309.896 222.002 313.112 221.626L313.112 221.626zM273.835 221.94L273.835 216.494C272.659 216.799 271.175 216.987 269.815 216.987 266.721 216.987 265.792 215.749 265.792 211.174L265.792 196.451 273.835 196.451 273.835 191.319 265.733 191.319 265.733 179.755 259.176 181.549 259.176 191.319 253.299 191.319 253.299 196.451 259.176 196.451 259.176 213.211C259.176 220.082 261.154 222.621 267.712 222.621 269.753 222.621 272.041 222.308 273.835 221.94L273.835 221.94zM252.484 177.028C250.69 176.66 249.022 176.473 247.352 176.473 239.31 176.473 235.165 180.555 235.165 188.969L235.165 191.319 228.67 191.319 228.67 196.451 235.165 196.451 235.165 217.176C233.308 217.301 231.393 217.606 229.782 217.975L229.782 222.057 247.164 222.057 247.164 217.975C245.555 217.606 243.639 217.301 241.781 217.176L241.781 196.451 249.762 196.451 249.762 191.319 241.781 191.319 241.781 188.844C241.781 184.018 243.639 181.855 247.658 181.855 248.959 181.855 250.506 182.043 251.99 182.474L252.484 177.028zM225.356 222.057L225.356 217.975C223.871 217.606 222.014 217.301 220.224 217.176L220.224 191.319C216.2 191.132 211.746 191.382 208.283 191.751L208.283 195.833C210.077 195.958 212.181 196.209 213.665 196.451L213.665 217.176C211.809 217.301 209.889 217.606 208.283 217.975L208.283 222.057 225.356 222.057zM221.211 182.6C221.211 180.249 219.295 178.454 216.944 178.454 214.594 178.454 212.737 180.312 212.737 182.6 212.737 184.887 214.594 186.744 216.944 186.744 219.295 186.744 221.211 184.887 221.211 182.6L221.211 182.6zM203.433 221.94L203.433 216.494C202.258 216.799 200.776 216.987 199.413 216.987 196.322 216.987 195.394 215.749 195.394 211.174L195.394 196.451 203.433 196.451 203.433 191.319 195.331 191.319 195.331 179.755 188.773 181.549 188.773 191.319 182.898 191.319 182.898 196.451 188.773 196.451 188.773 213.211C188.773 220.082 190.756 222.621 197.31 222.621 199.351 222.621 201.639 222.308 203.433 221.94L203.433 221.94zM180.3 209.442C180.3 196.389 161.621 199.483 161.621 191.132 161.621 187.669 164.219 185.255 169.476 185.255 170.467 185.255 171.705 185.443 172.383 185.568 172.508 187.05 172.755 188.844 173.127 190.638L178.075 190.638 178.075 180.555C175.289 179.998 172.692 179.692 169.723 179.692 160.137 179.692 154.569 184.699 154.569 191.876 154.569 205.485 173.185 201.647 173.185 210.43 173.185 214.95 169.476 216.862 164.712 216.862 163.537 216.862 162.114 216.682 161.002 216.431 160.881 214.888 160.571 213.094 160.262 211.174L155.313 211.174 155.313 221.626C157.97 222.308 161.187 222.676 164.465 222.676 174.239 222.676 180.3 217.112 180.3 209.442L180.3 209.442zM378.863 161.602C378.863 165.19 375.648 167.603 369.896 167.603 365.442 167.603 362.348 165.746 362.348 162.471 362.348 160.363 363.585 158.515 365.69 157.339 366.12 157.394 366.864 157.394 367.421 157.394L373.172 157.394C377.069 157.394 378.863 159.133 378.863 161.602L378.863 161.602zM376.886 136.921C376.886 140.944 374.163 143.236 369.955 143.236 365.563 143.236 363.092 140.944 363.092 136.858 363.092 133.09 365.69 130.43 370.081 130.43 374.409 130.43 376.886 132.901 376.886 136.921L376.886 136.921zM385.48 160.739C385.48 155.169 381.649 152.019 374.966 152.019L369.709 152.019C366.062 152.019 364.636 151.4 364.636 149.849 364.636 148.986 365.191 148.055 366.367 147.498 367.358 147.749 368.658 147.874 369.771 147.874 378.68 147.874 383.255 143.11 383.255 136.49 383.255 134.265 382.448 132.471 381.151 131.357L385.852 131.357 385.852 126.163 375.459 126.163C373.854 125.787 372.185 125.544 370.391 125.544 361.419 125.544 356.655 130.923 356.655 137.359 356.655 141.379 358.391 144.474 361.172 146.08 359.068 147.067 357.709 149.112 357.709 151.4 357.709 153.438 358.885 155.043 360.741 155.976 358.081 157.339 355.793 160.246 355.793 163.709 355.793 169.648 360.8 172.734 368.843 172.734 378.738 172.734 385.48 167.415 385.48 160.739L385.48 160.739zM352.143 125.544C345.773 124.988 342.678 128.819 341.256 132.964L341.192 132.964C341.565 130.613 341.812 127.895 341.812 126.163 338.039 125.976 333.585 126.222 330.122 126.594L330.122 130.676C331.916 130.802 334.019 131.045 335.505 131.295L335.505 152.019C333.648 152.137 331.732 152.45 330.122 152.818L330.122 156.9 347.441 156.9 347.441 152.818C345.835 152.45 343.915 152.137 342.059 152.019L342.059 144.411C342.059 135.19 345.091 130.923 351.833 132.04L352.143 125.544zM318.804 137.297L305.751 137.297C306.311 133.152 308.908 130.43 312.618 130.43 316.517 130.43 318.93 133.09 318.804 137.297L318.804 137.297zM325.421 138.841C325.421 131.542 321.648 125.544 312.865 125.544 303.898 125.544 298.824 132.471 298.824 141.747 298.824 152.575 304.082 157.52 313.668 157.52 317.444 157.52 321.218 156.838 324.309 155.545L323.69 150.287C321.154 151.518 317.876 152.262 314.722 152.262 308.599 152.262 305.441 149.05 305.63 141.936L325.236 141.936C325.358 140.76 325.421 139.71 325.421 138.841L325.421 138.841zM287.382 140.635C287.382 148.924 283.793 152.137 278.536 152.137 276.62 152.137 275.072 151.956 273.713 151.518L273.713 141.998C273.713 136.8 276.373 131.045 281.321 131.045 285.466 131.045 287.382 134.453 287.382 140.635L287.382 140.635zM273.713 111.747C269.69 111.563 265.177 111.81 261.714 112.182L261.714 116.264C263.504 116.385 265.608 116.636 267.093 116.883L267.093 156.101C270.435 156.963 273.713 157.394 278.042 157.394 288.247 157.394 294.37 150.655 294.37 140.016 294.37 130.739 290.352 125.544 283.053 125.544 278.536 125.544 274.889 127.957 273.278 131.789L273.157 131.789C273.525 130.183 273.713 127.707 273.713 125.912L273.713 111.747zM249.711 156.9L261.463 156.9 261.463 152.818C259.92 152.45 258.126 152.137 256.331 152.019L256.331 135.687C256.331 128.698 253.053 125.544 247.176 125.544 241.547 125.544 238.209 129.191 236.846 132.161 236.352 129.439 234.373 125.544 228.372 125.544 223.608 125.544 219.714 128.138 217.92 132.22L217.857 132.161C218.167 130.367 218.288 127.77 218.288 126.163 214.578 125.976 210.062 126.222 206.599 126.594L206.599 130.676C208.393 130.802 210.496 131.045 211.981 131.295L211.981 152.019C210.124 152.137 208.208 152.45 206.599 152.818L206.599 156.9 223.303 156.9 223.303 152.756C221.877 152.387 220.146 152.137 218.539 152.019L218.539 142.178C218.539 135.745 222.249 131.045 226.456 131.045 230.166 131.045 230.848 133.772 230.848 137.234L230.848 156.9 242.166 156.9 242.166 152.756C240.743 152.387 239.012 152.137 237.401 152.019L237.401 142.178C237.401 135.44 241.362 131.045 245.319 131.045 248.845 131.045 249.711 133.458 249.711 137.297L249.711 156.9zM195.28 137.297L182.228 137.297C182.787 133.152 185.385 130.43 189.095 130.43 192.993 130.43 195.406 133.09 195.28 137.297L195.28 137.297zM201.901 138.841C201.901 131.542 198.125 125.544 189.342 125.544 180.374 125.544 175.301 132.471 175.301 141.747 175.301 152.575 180.559 157.52 190.148 157.52 193.921 157.52 197.693 156.838 200.785 155.545L200.166 150.287C197.631 151.518 194.352 152.262 191.198 152.262 185.075 152.262 181.922 149.05 182.106 141.936L201.713 141.936C201.839 140.76 201.901 139.71 201.901 138.841L201.901 138.841zM170.973 156.782L170.973 151.337C169.797 151.643 168.312 151.831 166.953 151.831 163.858 151.831 162.934 150.593 162.934 146.018L162.934 131.295 170.973 131.295 170.973 126.163 162.871 126.163 162.871 114.591 156.312 116.385 156.312 126.163 150.437 126.163 150.437 131.295 156.312 131.295 156.312 148.055C156.312 154.926 158.291 157.456 164.85 157.456 166.891 157.456 169.178 157.151 170.973 156.782L170.973 156.782zM146.257 156.782L146.257 151.337C145.081 151.643 143.597 151.831 142.237 151.831 139.143 151.831 138.214 150.593 138.214 146.018L138.214 131.295 146.257 131.295 146.257 126.163 138.151 126.163 138.151 114.591 131.598 116.385 131.598 126.163 125.721 126.163 125.721 131.295 131.598 131.295 131.598 148.055C131.598 154.926 133.575 157.456 140.134 157.456 142.175 157.456 144.462 157.151 146.257 156.782L146.257 156.782zM122.129 125.544C115.755 124.988 112.664 128.819 111.241 132.964L111.179 132.964C111.551 130.613 111.798 127.895 111.798 126.163 108.025 125.976 103.571 126.222 100.108 126.594L100.108 130.676C101.898 130.802 104.002 131.045 105.487 131.295L105.487 152.019C103.634 152.137 101.714 152.45 100.108 152.818L100.108 156.9 117.428 156.9 117.428 152.818C115.817 152.45 113.901 152.137 112.045 152.019L112.045 144.411C112.045 135.19 115.077 130.923 121.815 132.04L122.129 125.544zM96.892 156.47L96.892 152.387C95.219 152.262 93.24 152.019 91.756 151.769L91.756 126.163C87.921 125.976 83.654 126.163 80.376 126.594L80.376 130.676C81.981 130.802 83.839 131.045 85.14 131.232L85.14 141.003C85.14 147.13 81.734 152.019 77.097 152.019 73.571 152.019 72.521 149.786 72.521 145.955L72.521 126.163C68.498 125.976 64.047 126.222 60.831 126.594L60.831 130.676C62.437 130.802 64.478 131.045 65.963 131.295L65.963 147.687C65.963 153.132 68.125 157.52 75.118 157.52 80.313 157.52 83.964 154.801 85.817 150.844L85.942 150.906C85.633 152.7 85.508 155.169 85.508 156.9 89.158 157.088 93.676 156.838 96.892 156.47L96.892 156.47zM76.046 116.573C76.046 114.532 74.374 112.859 72.27 112.859 70.17 112.859 68.56 114.532 68.56 116.573 68.56 118.677 70.17 120.346 72.27 120.346 74.374 120.346 76.046 118.677 76.046 116.573L76.046 116.573zM88.167 116.573C88.167 114.532 86.499 112.859 84.458 112.859 82.354 112.859 80.685 114.532 80.685 116.573 80.685 118.677 82.354 120.346 84.458 120.346 86.499 120.346 88.167 118.677 88.167 116.573L88.167 116.573zM59.605 119.292L59.605 115.151 44.757 115.151 44.757 119.233C46.183 119.543 47.852 119.853 49.399 119.974L44.201 141.254C43.645 143.541 43.214 145.955 42.779 148.556L42.716 148.556C42.285 145.892 41.666 143.048 41.047 140.822L33.749 115.151 26.325 115.151 19.211 140.822C18.533 143.357 18.036 146.018 17.605 148.736L17.542 148.736C17.111 145.955 16.614 143.295 15.936 140.51L10.737 119.974C12.348 119.853 14.079 119.543 15.501 119.233L15.501 115.151.16 115.151.16 119.292C1.151 119.543 2.573 119.789 3.627 119.911L13.088 156.9 21.068 156.9 28.057 130.985C28.801 128.389 29.295 125.85 29.604 123.257L29.667 123.257C30.039 125.912 30.533 128.572 31.214 131.107L38.325 156.9 46.677 156.9 56.079 119.911C57.191 119.789 58.614 119.543 59.605 119.292L59.605 119.292zM374.613 94.056L386.366 94.056 386.366 89.973C384.822 89.601 383.028 89.291 381.234 89.166L381.234 72.528C381.234 67.087 379.005 62.691 372.016 62.691 366.884 62.691 363.17 65.418 361.376 69.375L361.255 69.313C361.56 67.58 361.748 64.921 361.748 63.311 357.976 63.126 353.521 63.373 350.059 63.745L350.059 67.827C351.852 67.953 353.952 68.199 355.44 68.446L355.44 89.166C353.584 89.291 351.664 89.601 350.059 89.973L350.059 94.056 366.759 94.056 366.759 89.91C365.337 89.538 363.606 89.291 361.995 89.166L361.995 79.208C361.995 73.089 365.458 68.199 370.037 68.199 373.563 68.199 374.613 70.425 374.613 74.26L374.613 94.056zM338.999 74.444L325.945 74.444C326.506 70.299 329.104 67.58 332.813 67.58 336.711 67.58 339.12 70.24 338.999 74.444L338.999 74.444zM345.615 75.995C345.615 68.693 341.843 62.691 333.06 62.691 324.093 62.691 319.019 69.621 319.019 78.902 319.019 89.723 324.277 94.674 333.863 94.674 337.64 94.674 341.412 93.992 344.503 92.692L343.884 87.435C341.35 88.673 338.07 89.417 334.917 89.417 328.794 89.417 325.641 86.196 325.824 79.086L345.432 79.086C345.553 77.911 345.615 76.857 345.615 75.995L345.615 75.995zM304.67 78.158C304.67 83.415 301.951 89.229 297.062 89.229 292.858 89.229 290.938 85.766 290.938 79.58 290.938 71.294 294.527 68.074 299.784 68.074 301.391 68.074 303.001 68.262 304.67 68.631L304.67 78.158zM316.359 93.624L316.359 89.538C314.754 89.417 312.712 89.166 311.227 88.923L311.227 48.901C307.208 48.714 302.754 48.965 299.291 49.333L299.291 53.415C301.085 53.54 303.185 53.787 304.67 54.034L304.67 63.067C303.001 62.942 301.516 62.816 300.031 62.816 290.073 62.816 283.95 69.621 283.95 80.199 283.95 89.104 287.723 94.674 295.268 94.674 300.031 94.674 303.62 92.073 305.289 88.305L305.414 88.305C305.104 90.036 304.979 92.449 304.979 94.056 308.693 94.243 313.144 93.992 316.359 93.624L316.359 93.624zM269.537 80.818C269.537 85.209 266.505 89.538 261.992 89.538 259.394 89.538 257.785 88.054 257.785 85.703 257.785 82.733 260.57 80.199 269.537 80.199L269.537 80.818zM281.29 93.624L281.29 89.538C279.684 89.417 277.643 89.166 276.158 88.923L276.158 73.089C276.158 66.773 273.557 62.633 264.154 62.633 260.198 62.633 256.547 63.311 253.519 64.306L253.519 73.026 257.663 73.026C257.91 71.416 258.22 69.868 258.341 68.446 259.889 68.012 261.683 67.769 263.414 67.769 268.115 67.769 269.537 69.806 269.537 73.645L269.537 75.808C258.467 75.87 251.415 79.764 251.415 86.815 251.415 91.705 254.757 94.674 260.014 94.674 264.898 94.674 268.734 91.951 270.219 88.305L270.281 88.367C270.035 90.036 269.973 92.073 269.973 94.056 273.557 94.243 278.073 93.992 281.29 93.624L281.29 93.624zM239.662 81.559C239.662 85.766 236.756 88.735 230.633 88.735 228.466 88.735 226.797 88.609 225.747 88.426L225.747 75.126C226.672 75.064 228.838 75.064 229.519 75.064 235.396 75.064 239.662 76.795 239.662 81.559L239.662 81.559zM238.859 63.311C238.859 67.518 235.58 70.057 229.332 70.057 227.973 70.057 226.797 70.057 225.747 69.994L225.747 57.622C227.354 57.56 229.148 57.497 231.005 57.497 237.002 57.497 238.859 59.91 238.859 63.311L238.859 63.311zM246.776 81.433C246.776 77.108 244.242 72.963 238.797 71.913L238.797 71.788C243.063 70.299 245.911 66.53 245.911 62.261 245.911 55.828 241.21 52.114 232.117 52.114 227.106 52.114 222.033 52.302 218.88 52.302L213.682 52.302 213.682 56.384C215.291 56.757 217.211 57.065 219.063 57.191L219.063 89.166C217.211 89.291 215.291 89.601 213.682 89.973L213.682 94.056 219.063 94.056C223.644 94.056 227.847 94.243 230.386 94.243 243.187 94.243 246.776 86.878 246.776 81.433L246.776 81.433z"/>
    <polygon fill="#000" points="392.846 78.596 407.69 78.596 407.69 73.276 392.846 73.276"/>
    <path fill="#000" d="M444.071 156.117C450.527 156.117 455.761 150.883 455.761 144.427 455.761 137.971 450.527 132.741 444.071 132.741 437.615 132.741 432.381 137.971 432.381 144.427 432.381 150.883 437.615 156.117 444.071 156.117M477.252 151.251C481.017 151.251 484.069 148.195 484.069 144.427 484.069 140.666 481.017 137.61 477.252 137.61 473.487 137.61 470.435 140.666 470.435 144.427 470.435 148.195 473.487 151.251 477.252 151.251M510.371 156.117C516.827 156.117 522.061 150.883 522.061 144.427 522.061 137.971 516.827 132.741 510.371 132.741 503.915 132.741 498.682 137.971 498.682 144.427 498.682 150.883 503.915 156.117 510.371 156.117M543.49 159.039C551.56 159.039 558.102 152.497 558.102 144.427 558.102 136.356 551.56 129.818 543.49 129.818 535.42 129.818 528.878 136.356 528.878 144.427 528.878 152.497 535.42 159.039 543.49 159.039M576.707 156.117C583.163 156.117 588.396 150.883 588.396 144.427 588.396 137.971 583.163 132.741 576.707 132.741 570.251 132.741 565.017 137.971 565.017 144.427 565.017 150.883 570.251 156.117 576.707 156.117M609.728 155.631C616.184 155.631 621.417 150.397 621.417 143.941 621.417 137.485 616.184 132.251 609.728 132.251 603.271 132.251 598.042 137.485 598.042 143.941 598.042 150.397 603.271 155.631 609.728 155.631M477.386 118.129C481.15 118.129 484.202 115.076 484.202 111.308 484.202 107.547 481.15 104.491 477.386 104.491 473.621 104.491 470.569 107.547 470.569 111.308 470.569 115.076 473.621 118.129 477.386 118.129M510.504 122.998C516.96 122.998 522.194 117.764 522.194 111.308 522.194 104.852 516.96 99.618 510.504 99.618 504.048 99.618 498.815 104.852 498.815 111.308 498.815 117.764 504.048 122.998 510.504 122.998M543.623 122.998C550.079 122.998 555.313 117.764 555.313 111.308 555.313 104.852 550.079 99.618 543.623 99.618 537.167 99.618 531.937 104.852 531.937 111.308 531.937 117.764 537.167 122.998 543.623 122.998M576.84 122.998C583.3 122.998 588.53 117.764 588.53 111.308 588.53 104.852 583.3 99.618 576.84 99.618 570.384 99.618 565.154 104.852 565.154 111.308 565.154 117.764 570.384 122.998 576.84 122.998M609.864 117.639C613.63 117.639 616.681 114.591 616.681 110.822 616.681 107.058 613.63 104.006 609.864 104.006 606.096 104.006 603.044 107.058 603.044 110.822 603.044 114.591 606.096 117.639 609.864 117.639M643.277 122.026C649.729 122.026 654.963 116.793 654.963 110.337 654.963 103.881 649.729 98.647 643.277 98.647 636.817 98.647 631.587 103.881 631.587 110.337 631.587 116.793 636.817 122.026 643.277 122.026M510.504 92.802C518.574 92.802 525.117 86.26 525.117 78.19 525.117 70.119 518.574 63.577 510.504 63.577 502.435 63.577 495.892 70.119 495.892 78.19 495.892 86.26 502.435 92.802 510.504 92.802M543.623 85.01C547.392 85.01 550.443 81.958 550.443 78.19 550.443 74.429 547.392 71.373 543.623 71.373 539.858 71.373 536.807 74.429 536.807 78.19 536.807 81.958 539.858 85.01 543.623 85.01M576.84 92.802C584.91 92.802 591.452 86.26 591.452 78.19 591.452 70.119 584.91 63.577 576.84 63.577 568.773 63.577 562.232 70.119 562.232 78.19 562.232 86.26 568.773 92.802 576.84 92.802M609.864 84.52C613.63 84.52 616.681 81.472 616.681 77.703 616.681 73.939 613.63 70.887 609.864 70.887 606.096 70.887 603.044 73.939 603.044 77.703 603.044 81.472 606.096 84.52 609.864 84.52M510.116 51.891C513.881 51.891 516.933 48.839 516.933 45.07 516.933 41.306 513.881 38.254 510.116 38.254 506.352 38.254 503.296 41.306 503.296 45.07 503.296 48.839 506.352 51.891 510.116 51.891M510.116 18.768C513.881 18.768 516.933 15.72 516.933 11.952 516.933 8.187 513.881 5.135 510.116 5.135 506.352 5.135 503.296 8.187 503.296 11.952 503.296 15.72 506.352 18.768 510.116 18.768M543.235 59.683C551.306 59.683 557.848 53.141 557.848 45.07 557.848 37 551.306 30.458 543.235 30.458 535.165 30.458 528.623 37 528.623 45.07 528.623 53.141 535.165 59.683 543.235 59.683M576.452 51.891C580.217 51.891 583.269 48.839 583.269 45.07 583.269 41.306 580.217 38.254 576.452 38.254 572.688 38.254 569.636 41.306 569.636 45.07 569.636 48.839 572.688 51.891 576.452 51.891M576.452 23.642C582.908 23.642 588.142 18.408 588.142 11.952 588.142 5.496 582.908.262 576.452.262 569.996.262 564.762 5.496 564.762 11.952 564.762 18.408 569.996 23.642 576.452 23.642M609.473 51.401C613.237 51.401 616.293 48.354 616.293 44.585 616.293 40.82 613.237 37.769 609.473 37.769 605.708 37.769 602.656 40.82 602.656 44.585 602.656 48.354 605.708 51.401 609.473 51.401M443.949 184.37C447.714 184.37 450.769 181.315 450.769 177.546 450.769 173.785 447.714 170.73 443.949 170.73 440.185 170.73 437.133 173.785 437.133 177.546 437.133 181.315 440.185 184.37 443.949 184.37M477.131 189.235C483.587 189.235 488.821 184.002 488.821 177.546 488.821 171.09 483.587 165.856 477.131 165.856 470.675 165.856 465.441 171.09 465.441 177.546 465.441 184.002 470.675 189.235 477.131 189.235M510.25 192.158C518.319 192.158 524.862 185.615 524.862 177.546 524.862 169.483 518.319 162.941 510.25 162.941 502.18 162.941 495.638 169.483 495.638 177.546 495.638 185.615 502.18 192.158 510.25 192.158M543.368 184.37C547.133 184.37 550.188 181.315 550.188 177.546 550.188 173.785 547.133 170.73 543.368 170.73 539.604 170.73 536.552 173.785 536.552 177.546 536.552 181.315 539.604 184.37 543.368 184.37M576.585 189.235C583.041 189.235 588.275 184.002 588.275 177.546 588.275 171.09 583.041 165.856 576.585 165.856 570.129 165.856 564.896 171.09 564.896 177.546 564.896 184.002 570.129 189.235 576.585 189.235M609.606 188.75C616.066 188.75 621.296 183.516 621.296 177.06 621.296 170.604 616.066 165.37 609.606 165.37 603.15 165.37 597.92 170.604 597.92 177.06 597.92 183.516 603.15 188.75 609.606 188.75M444.071 222.355C450.527 222.355 455.761 217.12 455.761 210.672 455.761 204.208 450.527 198.982 444.071 198.982 437.615 198.982 432.381 204.208 432.381 210.672 432.381 217.12 437.615 222.355 444.071 222.355M477.252 217.488C481.017 217.488 484.069 214.433 484.069 210.672 484.069 206.903 481.017 203.848 477.252 203.848 473.487 203.848 470.432 206.903 470.432 210.672 470.432 214.433 473.487 217.488 477.252 217.488M510.371 222.355C516.827 222.355 522.061 217.12 522.061 210.672 522.061 204.208 516.827 198.982 510.371 198.982 503.915 198.982 498.682 204.208 498.682 210.672 498.682 217.12 503.915 222.355 510.371 222.355M543.49 225.276C551.56 225.276 558.102 218.734 558.102 210.672 558.102 202.603 551.56 196.06 543.49 196.06 535.42 196.06 528.878 202.603 528.878 210.672 528.878 218.734 535.42 225.276 543.49 225.276M576.707 222.355C583.163 222.355 588.396 217.12 588.396 210.672 588.396 204.208 583.163 198.982 576.707 198.982 570.251 198.982 565.017 204.208 565.017 210.672 565.017 217.12 570.251 222.355 576.707 222.355M609.728 217.003C613.496 217.003 616.548 213.947 616.548 210.179 616.548 206.418 613.496 203.362 609.728 203.362 605.963 203.362 602.911 206.418 602.911 210.179 602.911 213.947 605.963 217.003 609.728 217.003M477.252 255.473C483.708 255.473 488.942 250.239 488.942 243.791 488.942 237.335 483.708 232.102 477.252 232.102 470.796 232.102 465.562 237.335 465.562 243.791 465.562 250.239 470.796 255.473 477.252 255.473M510.371 250.607C514.136 250.607 517.191 247.552 517.191 243.791 517.191 240.023 514.136 236.967 510.371 236.967 506.606 236.967 503.555 240.023 503.555 243.791 503.555 247.552 506.606 250.607 510.371 250.607M543.49 255.473C549.946 255.473 555.18 250.239 555.18 243.791 555.18 237.335 549.946 232.102 543.49 232.102 537.034 232.102 531.8 237.335 531.8 243.791 531.8 250.239 537.034 255.473 543.49 255.473M576.707 258.396C584.776 258.396 591.319 251.861 591.319 243.791 591.319 235.721 584.776 229.179 576.707 229.179 568.637 229.179 562.095 235.721 562.095 243.791 562.095 251.861 568.637 258.396 576.707 258.396M609.728 250.122C613.496 250.122 616.548 247.066 616.548 243.298 616.548 239.536 613.496 236.481 609.728 236.481 605.963 236.481 602.911 239.536 602.911 243.298 602.911 247.066 605.963 250.122 609.728 250.122M576.452 283.727C580.217 283.727 583.269 280.671 583.269 276.91 583.269 273.142 580.217 270.086 576.452 270.086 572.688 270.086 569.636 273.142 569.636 276.91 569.636 280.671 572.688 283.727 576.452 283.727M444.071 250.607C447.84 250.607 450.892 247.552 450.892 243.791 450.892 240.023 447.84 236.967 444.071 236.967 440.306 236.967 437.255 240.023 437.255 243.791 437.255 247.552 440.306 250.607 444.071 250.607"/>
  </g>
</svg>
