<svg xmlns="http://www.w3.org/2000/svg" width="655" height="284"><g fill-rule="evenodd"><path d="M378.7 226.5c0 3.6-3.2 6-9 6-4.4 0-7.5-1.9-7.5-5.1 0-2.1 1.2-4 3.3-5.2l1.8.1h5.7c4 0 5.7 1.7 5.7 4.2zm-2-24.7c0 4-2.7 6.3-6.9 6.3-4.4 0-6.9-2.3-6.9-6.3 0-3.8 2.6-6.5 7-6.5 4.3 0 6.8 2.5 6.8 6.5zm8.6 23.8c0-5.5-3.8-8.7-10.5-8.7h-5.3c-3.6 0-5-.6-5-2.1 0-1 .5-1.9 1.7-2.4 1 .2 2.3.4 3.4.4 9 0 13.5-4.8 13.5-11.4 0-2.2-.8-4-2.1-5.1h4.7V191h-10.4a22 22 0 00-5-.7c-9 0-13.8 5.4-13.8 11.9 0 4 1.7 7 4.5 8.7-2 1-3.5 3-3.5 5.3 0 2 1.2 3.6 3 4.6a9 9 0 00-4.9 7.7c0 6 5 9 13 9 10 0 16.7-5.3 16.7-12zm-44-3.8h11.8v-4c-1.5-.5-3.3-.8-5.1-.9v-16.6c0-5.5-2.3-9.9-9.3-9.9-5 0-8.8 2.8-10.6 6.7h-.1c.3-1.8.5-4.4.5-6-3.8-.2-8.3 0-11.7.4v4c1.8.2 3.9.4 5.4.7v20.7c-1.9.1-3.8.4-5.4.8v4h16.7v-4a28 28 0 00-4.8-.8v-10c0-6 3.5-11 8-11 3.6 0 4.6 2.3 4.6 6.1v19.8zm-28.3-.4v-4.1l-5.2-.6V191c-3.8-.2-8 0-11.4.4v4l4.8.6v9.8c0 6.1-3.4 11-8 11-3.6 0-4.6-2.2-4.6-6V191c-4-.2-8.5 0-11.7.4v4l5.1.7v16.4c0 5.4 2.2 9.8 9.2 9.8 5.2 0 8.8-2.7 10.7-6.7l.1.1c-.3 1.8-.4 4.3-.4 6 3.6.2 8.1 0 11.4-.4zm-39.3.3v-5.5c-1.2.3-2.7.5-4 .5-3.1 0-4-1.2-4-5.8v-14.7h8V191h-8.1v-11.6l-6.6 1.8v9.8h-5.9v5h6V213c0 7 1.9 9.5 8.5 9.5 2 0 4.3-.4 6-.7zm-21.4-45c-1.8-.3-3.4-.5-5.1-.5-8 0-12.2 4-12.2 12.5v2.4h-6.5v5h6.5V217c-1.9.1-3.8.4-5.4.8v4H247v-4c-1.6-.4-3.5-.7-5.4-.8v-20.7h8V191h-8v-2.5c0-4.8 1.9-7 5.9-7 1.3 0 2.8.2 4.3.6l.5-5.4zm-27.1 45v-4c-1.5-.4-3.3-.7-5.1-.8v-25.8c-4-.2-8.5 0-12 .4v4c1.8.2 4 .4 5.4.7v20.7c-1.9.1-3.8.4-5.4.8v4h17.1zm-4.1-39.4c0-2.3-2-4.1-4.3-4.1a4.2 4.2 0 00-4.2 4.1c0 2.3 1.8 4.2 4.2 4.2 2.3 0 4.3-1.9 4.3-4.2zm-17.8 39.4v-5.5c-1.2.3-2.7.5-4 .5-3.1 0-4-1.2-4-5.8v-14.7h8V191h-8.1v-11.6l-6.6 1.8v9.8h-5.9v5h6V213c0 7 1.9 9.5 8.5 9.5 2 0 4.3-.4 6-.7zM180 209.2c0-13-18.6-10-18.6-18.3 0-3.5 2.6-6 7.8-6 1 0 2.2.3 3 .4 0 1.5.3 3.3.7 5h5v-10c-2.9-.6-5.5-.9-8.4-.9-9.6 0-15.2 5-15.2 12.2 0 13.6 18.6 9.8 18.6 18.6 0 4.5-3.7 6.4-8.4 6.4-1.2 0-2.6-.2-3.8-.4 0-1.6-.4-3.4-.7-5.3h-5v10.5c2.7.6 6 1 9.2 1 9.8 0 15.8-5.6 15.8-13.2zm198.6-47.9c0 3.6-3.2 6-9 6-4.4 0-7.5-1.8-7.5-5 0-2.2 1.2-4 3.3-5.2h7.5c4 0 5.7 1.8 5.7 4.2zm-2-24.6c0 4-2.7 6.3-6.9 6.3-4.4 0-6.9-2.3-6.9-6.4 0-3.8 2.6-6.4 7-6.4 4.3 0 6.8 2.4 6.8 6.5zm8.6 23.8c0-5.6-3.8-8.7-10.5-8.7h-5.3c-3.6 0-5-.7-5-2.2 0-.9.5-1.8 1.7-2.4 1 .3 2.3.4 3.4.4 9 0 13.5-4.8 13.5-11.4 0-2.2-.8-4-2.1-5.1h4.7v-5.2h-10.4a22 22 0 00-5-.6c-9 0-13.8 5.4-13.8 11.8 0 4 1.7 7.1 4.5 8.7-2 1-3.5 3-3.5 5.3 0 2 1.2 3.7 3 4.6a9 9 0 00-4.9 7.7c0 6 5 9 13 9 10 0 16.7-5.2 16.7-12zM352 125.3c-6.4-.6-9.5 3.3-10.9 7.4.3-2.3.6-5 .6-6.8-3.8-.2-8.3 0-11.7.4v4.1c1.8.1 3.9.4 5.3.6v20.8c-1.8 0-3.7.4-5.3.8v4h17.3v-4c-1.6-.4-3.5-.7-5.4-.8V144c0-9.2 3-13.4 9.8-12.3l.3-6.5zM318.6 137h-13c.6-4.1 3.1-6.8 6.9-6.8 3.9 0 6.3 2.6 6.1 6.8zm6.7 1.6c0-7.3-3.8-13.3-12.6-13.3-9 0-14 7-14 16.2 0 10.8 5.2 15.8 14.8 15.8 3.8 0 7.6-.7 10.6-2l-.6-5.3c-2.5 1.3-5.8 2-9 2-6 0-9.2-3.2-9-10.3H325l.2-3.1zm-38 1.8c0 8.3-3.7 11.5-9 11.5-1.8 0-3.4-.2-4.7-.6v-9.6c0-5.2 2.6-11 7.6-11 4.1 0 6 3.5 6 9.7zm-13.7-29c-4-.1-8.6.1-12 .5v4.1l5.3.6v39.2c3.4.9 6.7 1.3 11 1.3 10.2 0 16.3-6.7 16.3-17.3 0-9.3-4-14.5-11.3-14.5-4.5 0-8.2 2.4-9.8 6.2h-.1c.4-1.6.6-4 .6-5.8v-14.2zm-24 45.2h11.7v-4c-1.5-.4-3.3-.7-5.1-.8v-16.4c0-7-3.3-10.1-9.2-10.1-5.6 0-9 3.6-10.3 6.6-.5-2.7-2.5-6.6-8.5-6.6-4.8 0-8.6 2.6-10.4 6.7l-.1-.1c.3-1.8.4-4.4.4-6-3.7-.2-8.2 0-11.7.4v4.1l5.4.6v20.8c-1.8 0-3.8.4-5.4.8v4h16.7v-4.1c-1.4-.4-3.1-.6-4.7-.7v-9.9c0-6.4 3.7-11.1 7.9-11.1 3.7 0 4.4 2.7 4.4 6.2v19.6H242v-4.1a28 28 0 00-4.8-.7v-9.9c0-6.7 4-11.1 8-11.1 3.5 0 4.4 2.4 4.4 6.2v19.6zM195 137h-13c.5-4.1 3.1-6.8 6.8-6.8 4 0 6.3 2.6 6.2 6.8zm6.6 1.6c0-7.3-3.7-13.3-12.5-13.3-9 0-14 7-14 16.2 0 10.8 5.2 15.8 14.8 15.8 3.8 0 7.5-.7 10.6-2l-.6-5.3c-2.5 1.3-5.8 2-9 2-6 0-9.2-3.2-9-10.3h19.6l.1-3.1zm-30.9 18V151c-1.2.3-2.6.5-4 .5-3.1 0-4-1.3-4-5.8V131h8V126h-8v-11.6l-6.6 1.8v9.8h-6v5.1h6v16.8c0 6.9 2 9.4 8.5 9.4 2 0 4.3-.3 6.1-.7zm-24.7 0V151c-1.2.3-2.7.5-4 .5-3.1 0-4-1.3-4-5.8V131h8V126H138v-11.6l-6.6 1.8v9.8h-5.8v5.1h5.8v16.8c0 6.9 2 9.4 8.6 9.4 2 0 4.3-.3 6.1-.7zM122 125.2c-6.4-.6-9.5 3.3-11 7.4.4-2.3.6-5 .6-6.8-3.7-.2-8.2 0-11.7.4v4.1l5.4.6v20.8c-1.8 0-3.7.4-5.4.8v4h17.4v-4c-1.6-.4-3.6-.7-5.4-.8V144c0-9.2 3-13.4 9.8-12.3l.3-6.5zm-25.3 31V152c-1.6-.1-3.6-.3-5.1-.6V126c-3.8-.2-8.1 0-11.4.4v4.1l4.8.6v9.7c0 6.2-3.4 11-8 11-3.6 0-4.6-2.2-4.6-6v-19.8c-4-.2-8.5 0-11.7.4v4.1l5.1.6v16.4c0 5.5 2.2 9.9 9.2 9.9 5.2 0 8.8-2.8 10.7-6.7-.2 1.8-.4 4.3-.4 6 3.7.2 8.2 0 11.4-.4zm-20.8-40c0-2-1.7-3.7-3.8-3.7a3.7 3.7 0 00-3.7 3.7c0 2.1 1.6 3.8 3.7 3.8s3.8-1.7 3.8-3.8zm12.1 0a3.7 3.7 0 10-3.7 3.8c2 0 3.7-1.7 3.7-3.8zM59.4 119V115H44.6v4c1.4.4 3 .7 4.6.8L44 141l-1.4 7.3c-.5-2.7-1-5.5-1.7-7.7l-7.3-25.7h-7.4L19 140.6c-.7 2.5-1.2 5.2-1.7 7.9a97 97 0 00-1.6-8.3l-5.2-20.5a36 36 0 004.7-.7v-4.1H0v4.1c1 .3 2.4.5 3.5.6l9.4 37h8l7-25.9c.7-2.6 1.2-5.1 1.5-7.7h.1c.4 2.7.9 5.3 1.6 7.8l7 25.8h8.4l9.4-37c1.1 0 2.6-.3 3.5-.6zm315-25.2h11.8v-4c-1.5-.5-3.3-.8-5.1-.9V72.3c0-5.5-2.3-9.9-9.2-9.9-5.2 0-8.9 2.8-10.7 6.7h-.1c.3-1.8.5-4.4.5-6-3.8-.2-8.2 0-11.7.4v4c1.8.2 3.9.4 5.4.7v20.7a35 35 0 00-5.4.8v4h16.7v-4c-1.4-.4-3.2-.7-4.8-.8v-10c0-6 3.5-11 8-11 3.6 0 4.7 2.3 4.7 6.1v19.8zm-35.6-19.6h-13c.5-4.2 3.1-6.9 6.9-6.9 3.9 0 6.3 2.7 6.1 6.9zm6.7 1.5c0-7.3-3.8-13.3-12.6-13.3-9 0-14 7-14 16.2 0 10.9 5.2 15.8 14.8 15.8a28 28 0 0010.6-2l-.6-5.2c-2.5 1.2-5.8 2-9 2-6 0-9.2-3.3-9-10.4h19.6l.2-3zm-41 2.2c0 5.3-2.7 11-7.6 11-4.2 0-6.1-3.4-6.1-9.6 0-8.3 3.6-11.5 8.8-11.5 1.6 0 3.2.2 5 .6v9.5zm11.7 15.5v-4.1l-5.1-.6v-40c-4-.2-8.5 0-12 .4v4c1.8.2 4 .4 5.4.7v9l-4.6-.2c-10 0-16.1 6.8-16.1 17.3 0 9 3.8 14.5 11.3 14.5 4.8 0 8.4-2.6 10-6.4h.2a37 37 0 00-.5 5.8c3.7.2 8.2 0 11.4-.4zm-46.8-12.8c0 4.3-3 8.7-7.6 8.7-2.6 0-4.2-1.5-4.2-3.9 0-3 2.8-5.5 11.8-5.5v.7zM281 93.4v-4.1l-5.1-.6V72.8c0-6.3-2.6-10.4-12-10.4-4 0-7.6.6-10.6 1.6v8.8h4.1c.3-1.6.6-3.2.7-4.6 1.5-.5 3.3-.7 5-.7 4.8 0 6.2 2 6.2 5.9v2.1c-11 .1-18.1 4-18.1 11 0 5 3.3 8 8.6 8 4.8 0 8.7-2.8 10.2-6.5v.1c-.2 1.7-.3 3.7-.3 5.7 3.6.2 8.1 0 11.3-.4zm-41.6-12.1c0 4.2-2.9 7.2-9 7.2-2.2 0-3.9-.2-5-.3V74.9l3.9-.1c5.8 0 10.1 1.7 10.1 6.5zm-.8-18.3c0 4.3-3.3 6.8-9.5 6.8h-3.6V57.3l5.2-.2c6 0 7.9 2.4 7.9 5.8zm8 18.2c0-4.4-2.6-8.5-8-9.5v-.2c4.2-1.5 7-5.2 7-9.5 0-6.4-4.6-10.1-13.7-10.1l-13.3.1h-5.2v4.1c1.6.4 3.6.7 5.4.8v32c-1.8.1-3.8.4-5.4.8v4h5.4c4.6 0 8.8.3 11.3.3 12.8 0 16.4-7.4 16.4-12.8zM392.7 78.3h14.8V73h-14.8zM444 155.9a11.7 11.7 0 100-23.4 11.7 11.7 0 000 23.4m33-5a6.8 6.8 0 100-13.6 6.8 6.8 0 000 13.7m33.2 4.9a11.7 11.7 0 100-23.4 11.7 11.7 0 000 23.4m33.1 2.9a14.6 14.6 0 100-29.2 14.6 14.6 0 000 29.2m33.2-3a11.7 11.7 0 100-23.3 11.7 11.7 0 000 23.4m33-.5a11.7 11.7 0 100-23.4 11.7 11.7 0 000 23.4m-132.3-37.5a6.8 6.8 0 100-13.7 6.8 6.8 0 000 13.7m33.1 4.8a11.7 11.7 0 100-23.3 11.7 11.7 0 000 23.3m33.2 0a11.7 11.7 0 100-23.3 11.7 11.7 0 000 23.3m33.2 0a11.7 11.7 0 100-23.3 11.7 11.7 0 000 23.3m33-5.3a6.8 6.8 0 100-13.7 6.8 6.8 0 000 13.7m33.4 4.4a11.7 11.7 0 100-23.4 11.7 11.7 0 000 23.4M510.3 92.5a14.6 14.6 0 100-29.2 14.6 14.6 0 000 29.2m33.2-7.8a6.8 6.8 0 100-13.6 6.8 6.8 0 000 13.6m33.2 7.8a14.6 14.6 0 100-29.2 14.6 14.6 0 000 29.2m33-8.2a6.8 6.8 0 100-13.7 6.8 6.8 0 000 13.7M510 51.6a6.8 6.8 0 100-13.6 6.8 6.8 0 000 13.6m0-33a6.8 6.8 0 100-13.7 6.8 6.8 0 000 13.6m33 41a14.6 14.6 0 100-29.3 14.6 14.6 0 000 29.2m33.3-7.8a6.8 6.8 0 100-13.6 6.8 6.8 0 000 13.6m0-28.2a11.7 11.7 0 100-23.4 11.7 11.7 0 000 23.4m33 27.7a6.8 6.8 0 100-13.6 6.8 6.8 0 000 13.6m-165.5 133a6.8 6.8 0 100-13.6 6.8 6.8 0 000 13.6M477 189a11.7 11.7 0 100-23.4 11.7 11.7 0 000 23.4m33 2.9a14.6 14.6 0 100-29.2 14.6 14.6 0 000 29.2m33.2-7.8a6.8 6.8 0 100-13.6 6.8 6.8 0 000 13.6m33.2 4.9a11.7 11.7 0 100-23.4 11.7 11.7 0 000 23.4m33-.5a11.7 11.7 0 100-23.4 11.7 11.7 0 000 23.4M444 222a11.7 11.7 0 100-23.4 11.7 11.7 0 000 23.4m33.2-4.9a6.8 6.8 0 100-13.6 6.8 6.8 0 000 13.6m33.1 4.9a11.7 11.7 0 100-23.4 11.7 11.7 0 000 23.4m33.1 3a14.6 14.6 0 100-29.3 14.6 14.6 0 000 29.2m33.2-3a11.7 11.7 0 100-23.3 11.7 11.7 0 000 23.4m33-5.4a6.8 6.8 0 100-13.6 6.8 6.8 0 000 13.6m-132.4 38.5a11.7 11.7 0 100-23.4 11.7 11.7 0 000 23.4m33.1-4.9a6.8 6.8 0 100-13.6 6.8 6.8 0 000 13.6m33.1 5a11.7 11.7 0 100-23.5 11.7 11.7 0 000 23.4m33.2 3a14.6 14.6 0 100-29.3 14.6 14.6 0 000 29.2m33-8.2a6.8 6.8 0 100-13.7 6.8 6.8 0 000 13.7m-33.2 33.6a6.8 6.8 0 100-13.7 6.8 6.8 0 000 13.7m-132.4-33.2a6.8 6.8 0 100-13.6 6.8 6.8 0 000 13.6m-57.1 20.5v-2h-10.3v2h4v12.4h2.3v-12.4h4zm-13 0v-2h-7.5v14.4h2.3V277h4.9v-1.8h-5v-4.3h5.3zm-12.2 12.4V269h-2.2v4.2l.1 6.9c-.5-1-1-2.2-1.7-3.3L353 269h-3v14.3h2.3v-4.8c0-2 0-5-.2-6.3l1.6 3 5 8.1h3zm-16.2-5.5V269h-2.2v9c0 2.7-1.1 3.6-3.4 3.6-2.7 0-3.3-1.4-3.3-3.3v-9.3H334v9.4c0 2.7 1 5.2 5.5 5.2 3.8 0 5.8-2 5.8-5.8zm-14.3 5.5l-6-7.4 5.7-7H328l-5.2 6.7V269h-2.4v14.3h2.4v-7l5.2 7h3zm-15.2-5.5V269h-2.3v9c0 2.7-1 3.6-3.4 3.6-2.7 0-3.3-1.4-3.3-3.3v-9.3h-2.3v9.4c0 2.7 1 5.2 5.4 5.2 3.8 0 5.9-2 5.9-5.8zm-14.9 5.5v-2h-6.8l.8-1.2 6-9.3v-1.8h-9.3v2h6.5l-1 1.6-5.7 9v1.7h9.5zm-19.8 0V269h-2.3v4.2l.2 6.9-1.8-3.3-4.7-7.8h-3v14.3h2.2v-4.8l-.1-6.3c.4 1 1 2 1.6 3l4.9 8.1h3zm-15.8 0v-2H260v-4.4h5v-1.9h-5v-4h5.3v-2h-7.6v14.3h7.6zm-10.8-12.4v-2h-10.2v2h4v12.4h2.2v-12.4h4zm-13 0v-2H234v14.4h2.3V277h4.9v-1.8h-4.9v-4.3h5.2zm-14.4 12.4h2.3V269h-2.3v14.3zm-3.2-12.4v-2h-10.2v2h3.9v12.4h2.3v-12.4h4zm-12.7 8.1c0-4.5-6.3-3.4-6.3-6.3 0-1.2 1-2 2.7-2a9 9 0 012.6.4l.2-2-2.6-.3c-3.4 0-5.3 1.7-5.3 4.2 0 4.6 6.3 3.3 6.3 6.3 0 1.6-1.3 2.3-2.9 2.3a9 9 0 01-3-.6l-.1 2.2c.8.2 1.8.4 2.9.4 3.4 0 5.5-2 5.5-4.6zm-21.1-6c0 1.5-1.1 2.4-3 2.4H186v-4.6h1.2c2 0 2.9.7 2.9 2.2zm3.4 10.3l-3.8-5-1.3-1.5c2.4-.2 4.1-1.7 4.1-4 0-2.9-2-3.9-5-3.9h-3.9v14.4h2.4V277l4.5 6.2h3zm-16.8 0h2.4V269h-2.4v14.3zm-3.3-14.3H171l-2.2 9-.5 2.5-.6-2.7-2.5-8.8h-2.6l-2.4 8.8-.6 2.7-.5-2.8-2.3-8.7h-2.4l3.7 14.3h2.7l2.4-8.9.6-2.6.5 2.7 2.5 8.8h2.8l3.8-14.3z"/></g></svg>
